<svg id="SvgjsSvg1001" width="288" height="288" xmlns="http://www.w3.org/2000/svg" version="1.1" xmlns:xlink="http://www.w3.org/1999/xlink" xmlns:svgjs="http://svgjs.com/svgjs"><defs id="SvgjsDefs1002"></defs><g id="SvgjsG1008"><svg xmlns="http://www.w3.org/2000/svg" viewBox="0 0 249 286" width="288" height="288"><path fill="#ffffff" d="M197 13C194.382 19.0663 190.07 25.7162 184 28.8248C180.413 30.662 175.856 30.7753 172 31.9128C165.599 33.8012 158.95 37.3387 154.3 42.1736C146.654 50.1244 140.23 59.8344 136.012 70C131.72 80.3421 129.174 91.878 122.39 101C107.293 121.301 86.6376 137.638 70.2963 157C64.6732 163.662 59.948 171.298 55.8889 179C54.2033 182.198 53.2159 185.945 51.0309 188.856C48.3457 192.432 43.7208 192.967 40.0039 195.035C33.8069 198.484 29.6414 204.908 29.0941 212C28.0006 226.173 40.3295 240.79 54 243.536C61.4215 245.027 69.4696 245.301 77 244.788C80.3861 244.557 83.5777 243.185 87 243.26C112.357 243.814 137.595 243.637 163 243.015C174.075 242.743 184.998 243.865 196 243.996C199.744 244.041 205.371 244.93 208.427 242.258C212.637 238.576 209.262 234.016 204.995 232.653C196.612 229.974 185.787 235.938 183.468 224C183.147 222.347 183.056 220.679 183.015 219C182.66 204.743 183.342 190.956 186.424 177C189.249 164.21 194.452 150.984 195.826 138C196.41 132.483 194.721 127.415 194.171 122C193.012 110.596 192.166 98.1272 195.8 87C199.313 76.2456 209.662 82.9301 218 81.6991C229.608 79.9854 232.083 73.2915 234 63C227.697 60.1926 220.217 58.6639 215.043 53.8673C211.358 50.4507 209.797 45.8311 206.61 42.0934C203.93 38.9505 199.04 37.0502 197.643 32.9599C195.745 27.4037 198.75 18.8262 199 13L197 13M171 178L170 203L171 232C164.068 230.918 163.514 225.157 163.09 219C162.432 209.456 161.964 200.532 163.05 191C163.726 185.073 164.716 179.807 171 178M144 201C140.311 198.901 139.374 195.351 136.895 192.04C134.476 188.81 131.588 186.721 128 185C136.597 182.052 143.539 193.835 144 201M47 200C47.993 203.36 47.8333 206.535 48.1698 210C48.5467 213.882 51.7767 222.009 48.9715 225.378C45.712 229.293 40.4138 222.516 39.0502 219.985C34.6289 211.782 38.7269 203.214 47 200M150 233C150.986 234.479 151 234.203 151 236L148 236C148.684 234.42 148.805 234.223 150 233z" class="color151717 svgShape"></path></svg></g></svg>